<svg width="13" height="15" viewBox="0 0 13 15" fill="none" xmlns="http://www.w3.org/2000/svg">
<g clip-path="url(#clip0_578_99)">
<path d="M6.5 0.416687C4.80924 0.416687 3.18774 1.08834 1.99219 2.28388C0.79665 3.47943 0.125 5.10093 0.125 6.79169C0.125 9.74544 2.13667 12.2246 4.86375 12.9471L6.5 14.5834L8.13625 12.9471C10.8633 12.2246 12.875 9.74544 12.875 6.79169C12.875 5.10093 12.2033 3.47943 11.0078 2.28388C9.81226 1.08834 8.19075 0.416687 6.5 0.416687ZM6.5 1.83335C7.67583 1.83335 8.625 2.78252 8.625 3.95835C8.625 5.13419 7.67583 6.08335 6.5 6.08335C5.32417 6.08335 4.375 5.13419 4.375 3.95835C4.375 2.78252 5.32417 1.83335 6.5 1.83335ZM6.5 11.9625C5.6584 11.9625 4.82988 11.7543 4.08832 11.3563C3.34676 10.9583 2.71522 10.383 2.25 9.68169C2.27125 8.2721 5.08333 7.50002 6.5 7.50002C7.90958 7.50002 10.7287 8.2721 10.75 9.68169C10.2848 10.383 9.65324 10.9583 8.91168 11.3563C8.17012 11.7543 7.3416 11.9625 6.5 11.9625Z" fill="white"/>
</g>
<defs>
<clipPath id="clip0_578_99">
<rect width="13" height="15" fill="white"/>
</clipPath>
</defs>
</svg>
