<svg width="10" height="8" viewBox="0 0 10 8" fill="none" xmlns="http://www.w3.org/2000/svg">
<g clip-path="url(#clip0_578_99)">
<path fill-rule="evenodd" clip-rule="evenodd" d="M3.001 0.276477C4.3492 0.174931 5.70337 0.181619 7.0505 0.296477L7.8625 0.365477C8.16039 0.390952 8.44106 0.515831 8.65943 0.720047C8.87779 0.924263 9.02116 1.19596 9.0665 1.49148L9.1175 1.82598C9.291 2.95993 9.27478 4.11484 9.0695 5.24348C9.02061 5.51344 8.87841 5.75763 8.66774 5.93338C8.45708 6.10913 8.19135 6.20526 7.917 6.20498H3.429C3.3255 6.20498 3.224 6.23048 3.133 6.27948L1.1775 7.33048C1.12036 7.36118 1.05623 7.37654 0.991373 7.37505C0.92652 7.37355 0.863163 7.35526 0.807493 7.32196C0.751822 7.28866 0.705743 7.24149 0.673757 7.18505C0.64177 7.12862 0.624971 7.06485 0.625 6.99998V2.74148C0.625129 2.11992 0.860065 1.52135 1.28276 1.06565C1.70546 0.609946 2.2847 0.330751 2.9045 0.283977L3.001 0.276477ZM3 2.74998C2.83424 2.74998 2.67527 2.81582 2.55806 2.93304C2.44085 3.05025 2.375 3.20922 2.375 3.37498C2.375 3.54074 2.44085 3.69971 2.55806 3.81692C2.67527 3.93413 2.83424 3.99998 3 3.99998C3.16576 3.99998 3.32473 3.93413 3.44194 3.81692C3.55915 3.69971 3.625 3.54074 3.625 3.37498C3.625 3.20922 3.55915 3.05025 3.44194 2.93304C3.32473 2.81582 3.16576 2.74998 3 2.74998ZM5 2.74998C4.83424 2.74998 4.67527 2.81582 4.55806 2.93304C4.44085 3.05025 4.375 3.20922 4.375 3.37498C4.375 3.54074 4.44085 3.69971 4.55806 3.81692C4.67527 3.93413 4.83424 3.99998 5 3.99998C5.16576 3.99998 5.32473 3.93413 5.44194 3.81692C5.55915 3.69971 5.625 3.54074 5.625 3.37498C5.625 3.20922 5.55915 3.05025 5.44194 2.93304C5.32473 2.81582 5.16576 2.74998 5 2.74998ZM6.375 3.37498C6.375 3.20922 6.44085 3.05025 6.55806 2.93304C6.67527 2.81582 6.83424 2.74998 7 2.74998C7.16576 2.74998 7.32473 2.81582 7.44194 2.93304C7.55915 3.05025 7.625 3.20922 7.625 3.37498C7.625 3.54074 7.55915 3.69971 7.44194 3.81692C7.32473 3.93413 7.16576 3.99998 7 3.99998C6.83424 3.99998 6.67527 3.93413 6.55806 3.81692C6.44085 3.69971 6.375 3.54074 6.375 3.37498Z" fill="white"/>
</g>
<defs>
<clipPath id="clip0_578_99">
<rect width="10" height="8" fill="white"/>
</clipPath>
</defs>
</svg>
