<svg width="10" height="9" viewBox="0 0 10 9" fill="none" xmlns="http://www.w3.org/2000/svg">
<g clip-path="url(#clip0_578_99)">
<path fill-rule="evenodd" clip-rule="evenodd" d="M8.7477 0.56648C8.85849 0.499834 8.99079 0.478697 9.11683 0.507504C9.24288 0.536311 9.35286 0.612822 9.4237 0.72098L9.9187 1.47598C9.98323 1.57461 10.0108 1.69287 9.99666 1.80987C9.98248 1.92688 9.92742 2.03512 9.8412 2.11548L9.8397 2.11748L9.8327 2.12398L9.8042 2.15048L9.6917 2.25798C9.06923 2.86181 8.4656 3.48478 7.8817 4.12598C6.7832 5.33398 5.4787 6.91498 4.6007 8.44898C4.3557 8.87698 3.7572 8.96898 3.4022 8.59948L0.159701 5.23048C0.113233 5.18218 0.0769505 5.12503 0.0530089 5.06243C0.0290673 4.99983 0.0179558 4.93306 0.0203346 4.86608C0.0227134 4.7991 0.0385341 4.73328 0.0668563 4.67253C0.0951784 4.61179 0.135424 4.55736 0.185201 4.51248L1.1652 3.62848C1.25132 3.55083 1.36175 3.50554 1.47759 3.50034C1.59343 3.49514 1.70747 3.53036 1.8002 3.59998L3.4547 4.84048C6.0392 2.29198 7.5047 1.31398 8.7477 0.56648Z" fill="white"/>
</g>
<defs>
<clipPath id="clip0_578_99">
<rect width="10" height="9" fill="white"/>
</clipPath>
</defs>
</svg>
