<svg width="15" height="14" viewBox="0 0 15 14" fill="none" xmlns="http://www.w3.org/2000/svg">
<path fill-rule="evenodd" clip-rule="evenodd" d="M4.84375 2.78125C4.84375 2.07677 5.1236 1.40114 5.62175 0.902998C6.11989 0.404854 6.79552 0.125 7.5 0.125C8.20448 0.125 8.88011 0.404854 9.37825 0.902998C9.8764 1.40114 10.1562 2.07677 10.1562 2.78125C10.1562 3.48573 9.8764 4.16136 9.37825 4.6595C8.88011 5.15765 8.20448 5.4375 7.5 5.4375C6.79552 5.4375 6.11989 5.15765 5.62175 4.6595C5.1236 4.16136 4.84375 3.48573 4.84375 2.78125ZM10.1562 4.90625C10.1562 4.34266 10.3801 3.80216 10.7786 3.40365C11.1772 3.00513 11.7177 2.78125 12.2812 2.78125C12.8448 2.78125 13.3853 3.00513 13.7839 3.40365C14.1824 3.80216 14.4062 4.34266 14.4062 4.90625C14.4062 5.46983 14.1824 6.01034 13.7839 6.40885C13.3853 6.80737 12.8448 7.03125 12.2812 7.03125C11.7177 7.03125 11.1772 6.80737 10.7786 6.40885C10.3801 6.01034 10.1562 5.46983 10.1562 4.90625ZM0.59375 4.90625C0.59375 4.34266 0.817633 3.80216 1.21615 3.40365C1.61466 3.00513 2.15516 2.78125 2.71875 2.78125C3.28233 2.78125 3.82284 3.00513 4.22135 3.40365C4.61987 3.80216 4.84375 4.34266 4.84375 4.90625C4.84375 5.46983 4.61987 6.01034 4.22135 6.40885C3.82284 6.80737 3.28233 7.03125 2.71875 7.03125C2.15516 7.03125 1.61466 6.80737 1.21615 6.40885C0.817633 6.01034 0.59375 5.46983 0.59375 4.90625ZM3.46958 8.70858C3.90179 8.03153 4.4976 7.47427 5.20202 7.08827C5.90644 6.70226 6.69675 6.49995 7.5 6.5C8.17279 6.49938 8.83812 6.64087 9.45245 6.9152C10.0668 7.18952 10.6162 7.5905 11.0648 8.09189C11.5135 8.59327 11.8511 9.18375 12.0558 9.82467C12.2604 10.4656 12.3273 11.1425 12.2522 11.8111C12.243 11.8941 12.2144 11.9739 12.1686 12.0438C12.1228 12.1137 12.0612 12.1718 11.9887 12.2134C10.6227 12.9971 9.07485 13.4084 7.5 13.4062C5.92515 13.4084 4.37732 12.9971 3.01129 12.2134C2.93882 12.1718 2.87719 12.1137 2.83141 12.0438C2.78562 11.9739 2.75697 11.8941 2.74779 11.8111C2.62957 10.725 2.8841 9.63096 3.46958 8.70858Z" fill="white"/>
<path d="M2.59975 8.09656L2.57425 8.13552C1.89373 9.20639 1.57791 10.4687 1.67396 11.7338C1.24838 11.6694 0.829804 11.565 0.42375 11.4222L0.342292 11.3938C0.269468 11.3683 0.205683 11.322 0.158753 11.2608C0.111824 11.1995 0.0837884 11.1259 0.0780833 11.0489L0.071 10.9632C0.0653333 10.8919 0.0625 10.8208 0.0625 10.75C0.0625428 10.0661 0.326328 9.40864 0.798943 8.91438C1.27156 8.42013 1.91659 8.12719 2.59975 8.09656ZM13.3267 11.7338C13.4236 10.4528 13.0982 9.17519 12.4002 8.09656C12.7567 8.11253 13.1062 8.20014 13.428 8.35415C13.7498 8.50816 14.0373 8.72541 14.2733 8.99295C14.5093 9.2605 14.689 9.57284 14.8016 9.91134C14.9143 10.2498 14.9576 10.6076 14.929 10.9632L14.9219 11.0489C14.9161 11.1257 14.888 11.1992 14.8411 11.2603C14.7941 11.3215 14.7304 11.3676 14.6577 11.3931L14.5762 11.4215C14.1744 11.5641 13.7579 11.6682 13.3267 11.7338Z" fill="white"/>
</svg>
