<svg width="16" height="16" viewBox="0 0 16 16" fill="none" xmlns="http://www.w3.org/2000/svg">
<path d="M7.99993 9.63327L2.28327 15.3499C2.06938 15.5638 1.79716 15.6708 1.4666 15.6708C1.13605 15.6708 0.863823 15.5638 0.649934 15.3499C0.436046 15.136 0.329102 14.8638 0.329102 14.5333C0.329102 14.2027 0.436046 13.9305 0.649934 13.7166L6.3666 7.99993L0.649934 2.28327C0.436046 2.06938 0.329102 1.79716 0.329102 1.4666C0.329102 1.13605 0.436046 0.863823 0.649934 0.649934C0.863823 0.436046 1.13605 0.329102 1.4666 0.329102C1.79716 0.329102 2.06938 0.436046 2.28327 0.649934L7.99993 6.3666L13.7166 0.649934C13.9305 0.436046 14.2027 0.329102 14.5333 0.329102C14.8638 0.329102 15.136 0.436046 15.3499 0.649934C15.5638 0.863823 15.6708 1.13605 15.6708 1.4666C15.6708 1.79716 15.5638 2.06938 15.3499 2.28327L9.63327 7.99993L15.3499 13.7166C15.5638 13.9305 15.6708 14.2027 15.6708 14.5333C15.6708 14.8638 15.5638 15.136 15.3499 15.3499C15.136 15.5638 14.8638 15.6708 14.5333 15.6708C14.2027 15.6708 13.9305 15.5638 13.7166 15.3499L7.99993 9.63327Z" fill="white"/>
</svg>
