<svg width="251" height="251" viewBox="0 0 251 251" fill="none" xmlns="http://www.w3.org/2000/svg">
<path d="M132.5 202.013L40.05 109.563C55.6026 103.065 69.7282 93.5775 81.625 81.6375C93.5708 69.7381 103.063 55.6082 109.563 40.0501L202.013 132.5C209.225 139.713 212.838 143.325 215.938 147.3C219.595 151.993 222.734 157.069 225.3 162.438C227.463 166.988 229.075 171.838 232.3 181.513L249.325 232.55C250.109 234.887 250.225 237.396 249.661 239.795C249.097 242.194 247.874 244.389 246.132 246.132C244.389 247.874 242.194 249.097 239.795 249.661C237.396 250.225 234.887 250.109 232.55 249.325L181.513 232.3C171.825 229.075 166.988 227.463 162.438 225.3C157.046 222.733 152 219.613 147.3 215.938C143.325 212.838 139.713 209.225 132.5 202.013ZM14.4 83.9126C5.18208 74.6946 0.00348654 62.1924 0.00348663 49.1563C0.00348673 36.1202 5.18208 23.618 14.4 14.4C23.6179 5.18212 36.1201 0.00354014 49.1563 0.00354004C62.1924 0.00353994 74.6946 5.18212 83.9125 14.4L95 25.4876L94.525 26.8751C89.0627 42.5098 80.1212 56.6999 68.375 68.3751C56.3508 80.4728 41.6638 89.5906 25.4875 95.0001L14.4 83.9126Z" fill="white"/>
</svg>
