<svg width="70" height="71" viewBox="0 0 70 71" fill="none" xmlns="http://www.w3.org/2000/svg">
<g clip-path="url(#clip0_186_30)">
<mask id="mask0_186_30" style="mask-type:luminance" maskUnits="userSpaceOnUse" x="0" y="0" width="70" height="71">
<path d="M0 0.243164H70V70.2432H0V0.243164Z" fill="white"/>
</mask>
<g mask="url(#mask0_186_30)">
<path fill-rule="evenodd" clip-rule="evenodd" d="M24.5438 0.243164C17.4067 0.243164 11.6667 6.23108 11.6667 13.5665C11.6667 18.0261 13.79 21.9869 17.0538 24.4048C15.3712 25.6646 14.0074 27.3013 13.0718 29.1836C12.1362 31.0659 11.655 33.1412 11.6667 35.2432C11.6667 39.7057 13.79 43.6636 17.0538 46.0815C15.3712 47.3413 14.0074 48.978 13.0718 50.8603C12.1362 52.7425 11.655 54.8179 11.6667 56.9198C11.6667 64.2552 17.4067 70.2432 24.5438 70.2432C31.6809 70.2432 37.4209 64.2552 37.4209 56.9198V45.6557C39.6756 47.5378 42.5193 48.569 45.4563 48.5694C52.5934 48.5665 58.3334 42.5786 58.3334 35.2432C58.3451 33.1412 57.8639 31.0659 56.9283 29.1836C55.9927 27.3013 54.6289 25.6646 52.9463 24.4048C54.6289 23.1451 55.9927 21.5083 56.9283 19.6261C57.8639 17.7438 58.3451 15.6684 58.3334 13.5665C58.3334 6.23108 52.5934 0.243164 45.4563 0.243164H24.5438ZM16.5055 13.5665C16.5055 8.92608 20.128 5.21025 24.5438 5.21025H32.5792V21.9227H24.5438C20.128 21.9227 16.5055 18.204 16.5055 13.5665ZM45.4563 21.9198H37.4209V5.20733H45.4563C49.875 5.20733 53.4946 8.92608 53.4946 13.5665C53.4946 18.204 49.875 21.9198 45.4563 21.9198ZM16.5084 35.2432C16.5084 30.6057 20.1309 26.8869 24.5467 26.8869H32.5821V43.5994H24.5438C20.125 43.5994 16.5084 39.8807 16.5084 35.2432ZM37.418 35.2432C37.418 30.6057 41.0405 26.8869 45.4563 26.8869C49.875 26.8869 53.4946 30.6027 53.4946 35.2432C53.4946 39.8807 49.875 43.5994 45.4563 43.5994C41.0375 43.5994 37.418 39.8807 37.418 35.2432ZM16.5084 56.9198C16.5084 52.2823 20.1309 48.5665 24.5467 48.5665H32.5821V56.9198C32.5821 61.5602 28.9655 65.2761 24.5467 65.2761C20.128 65.2761 16.5084 61.5602 16.5084 56.9198Z" fill="white"/>
</g>
</g>
<defs>
<clipPath id="clip0_186_30">
<rect width="70" height="70" fill="white" transform="translate(0 0.243164)"/>
</clipPath>
</defs>
</svg>
