<svg width="10" height="12" viewBox="0 0 10 12" fill="none" xmlns="http://www.w3.org/2000/svg">
<g clip-path="url(#clip0_578_99)">
<path d="M5.0002 0.599976C2.0554 0.599976 0.200195 1.50718 0.200195 2.40058V3.60058C0.200195 4.15138 3.8002 7.20058 3.8002 7.20058V10.8006C3.7996 11.211 4.4002 11.4006 5.0002 11.4006C5.6002 11.4006 6.2008 11.211 6.2002 10.8006V7.20058C6.2002 7.20058 9.8002 4.15138 9.8002 3.60058V2.40058C9.8002 1.50718 7.945 0.599976 5.0002 0.599976ZM5.0002 3.67378C2.8456 3.67318 1.3174 2.87398 1.3174 2.57518C1.3162 2.27818 2.8462 1.47658 5.0002 1.47778C7.1542 1.47658 8.6842 2.27818 8.683 2.57458C8.683 2.87398 7.1548 3.67318 5.0002 3.67378Z" fill="white"/>
</g>
<defs>
<clipPath id="clip0_578_99">
<rect width="10" height="12" fill="white"/>
</clipPath>
</defs>
</svg>
