<svg width="80" height="81" viewBox="0 0 80 81" fill="none" xmlns="http://www.w3.org/2000/svg">
<path d="M34.3467 4.79763C35.8467 3.2995 37.88 2.45801 40 2.45801C42.12 2.45801 44.1533 3.2995 45.6533 4.79763L75.4453 34.5843C76.1888 35.3272 76.7785 36.2094 77.1808 37.1803C77.5832 38.1513 77.7903 39.192 77.7903 40.243C77.7903 41.294 77.5832 42.3347 77.1808 43.3056C76.7785 44.2766 76.1888 45.1587 75.4453 45.9016L45.6587 75.6883C44.9157 76.4317 44.0336 77.0215 43.0627 77.4238C42.0917 77.8262 41.051 78.0333 40 78.0333C38.949 78.0333 37.9083 77.8262 36.9374 77.4238C35.9664 77.0215 35.0843 76.4317 34.3413 75.6883L4.55468 45.9016C3.81126 45.1587 3.22153 44.2766 2.81917 43.3056C2.41681 42.3347 2.20972 41.294 2.20972 40.243C2.20972 39.192 2.41681 38.1513 2.81917 37.1803C3.22153 36.2094 3.81126 35.3272 4.55468 34.5843L25.5627 13.5763L32.7787 20.7923C32.295 21.8048 32.0297 22.9077 32 24.0295C31.9704 25.1512 32.177 26.2666 32.6066 27.3033C33.0361 28.3399 33.6789 29.2746 34.4933 30.0466C35.3076 30.8186 36.2753 31.4107 37.3333 31.7843V48.6963C35.5541 49.3254 34.0545 50.5632 33.0997 52.1909C32.1448 53.8187 31.7961 55.7316 32.1152 57.5916C32.4343 59.4516 33.4007 61.1389 34.8436 62.3552C36.2864 63.5716 38.1128 64.2388 40 64.2388C41.8872 64.2388 43.7136 63.5716 45.1564 62.3552C46.5993 61.1389 47.5657 59.4516 47.8848 57.5916C48.2039 55.7316 47.8552 53.8187 46.9004 52.1909C45.9455 50.5632 44.4459 49.3254 42.6667 48.6963V31.7896C42.9369 31.6936 43.1982 31.5852 43.4507 31.4643L48.784 36.7976C47.9706 38.5005 47.7854 40.4362 48.2611 42.2624C48.7369 44.0887 49.8429 45.688 51.3838 46.7776C52.9247 47.8672 54.8011 48.377 56.6815 48.2169C58.5619 48.0568 60.3252 47.237 61.6596 45.9026C62.9941 44.5681 63.8138 42.8049 63.9739 40.9245C64.1341 39.0441 63.6242 37.1676 62.5346 35.6268C61.445 34.0859 59.8457 32.9798 58.0195 32.5041C56.1932 32.0284 54.2576 32.2136 52.5547 33.027L47.2213 27.6936C47.9343 26.2008 48.1669 24.5236 47.8872 22.8931C47.6074 21.2626 46.8291 19.7589 45.6592 18.5891C44.4894 17.4193 42.9857 16.6409 41.3552 16.3611C39.7247 16.0814 38.0475 16.314 36.5547 17.027L29.3333 9.8003L34.3467 4.79763Z" fill="white"/>
</svg>
