<svg width="76" height="74" viewBox="0 0 76 74" fill="none" xmlns="http://www.w3.org/2000/svg">
<path fill-rule="evenodd" clip-rule="evenodd" d="M38 0.743164C17.2812 0.743164 0.5 17.5244 0.5 38.2432C0.5 54.8369 11.2344 68.8525 26.1406 73.8213C28.0156 74.1494 28.7188 73.0244 28.7188 72.04C28.7188 71.1494 28.6719 68.1963 28.6719 65.0557C19.25 66.79 16.8125 62.7588 16.0625 60.6494C15.6406 59.5713 13.8125 56.2432 12.2188 55.3525C10.9062 54.6494 9.03125 52.915 12.1719 52.8682C15.125 52.8213 17.2344 55.5869 17.9375 56.7119C21.3125 62.3838 26.7031 60.79 28.8594 59.8057C29.1875 57.3682 30.1719 55.7275 31.25 54.79C22.9062 53.8525 14.1875 50.6182 14.1875 36.2744C14.1875 32.1963 15.6406 28.8213 18.0312 26.1963C17.6562 25.2588 16.3438 21.415 18.4062 16.2588C18.4062 16.2588 21.5469 15.2744 28.7188 20.1025C31.7188 19.2588 34.9062 18.8369 38.0938 18.8369C41.2812 18.8369 44.4688 19.2588 47.4688 20.1025C54.6406 15.2275 57.7812 16.2588 57.7812 16.2588C59.8438 21.415 58.5313 25.2588 58.1563 26.1963C60.5469 28.8213 62 32.1494 62 36.2744C62 50.665 53.2344 53.8525 44.8906 54.79C46.25 55.9619 47.4219 58.2119 47.4219 61.7275C47.4219 66.7432 47.375 70.7744 47.375 72.04C47.375 73.0244 48.0781 74.1963 49.9531 73.8213C57.3974 71.3079 63.8662 66.5234 68.449 60.1412C73.0317 53.7589 75.4978 46.1003 75.5 38.2432C75.5 17.5244 58.7188 0.743164 38 0.743164Z" fill="white"/>
</svg>
