<svg width="22" height="23" viewBox="0 0 22 23" fill="none" xmlns="http://www.w3.org/2000/svg">
<path d="M15.0001 21.77V18.9C15.0376 18.4231 14.9732 17.9438 14.8111 17.4937C14.649 17.0437 14.393 16.6334 14.0601 16.29C17.2001 15.94 20.5001 14.75 20.5001 9.28996C20.4998 7.89378 19.9628 6.55116 19.0001 5.53996C19.4559 4.31846 19.4237 2.96831 18.9101 1.76996C18.9101 1.76996 17.7301 1.41996 15.0001 3.24996C12.708 2.62974 10.2922 2.62974 8.00008 3.24996C5.27008 1.41996 4.09008 1.76996 4.09008 1.76996C3.57645 2.96831 3.54422 4.31846 4.00008 5.53996C3.0302 6.55866 2.4926 7.91342 2.50008 9.31996C2.50008 14.74 5.80008 15.93 8.94008 16.32C8.61107 16.6599 8.35734 17.0654 8.19539 17.5099C8.03343 17.9544 7.96688 18.428 8.00008 18.9V21.77" stroke="#B4B4B4" stroke-width="2" stroke-linecap="round" stroke-linejoin="round"/>
<path d="M8 19.7695C5 20.7425 2.5 19.7695 1 16.7695" stroke="#B4B4B4" stroke-width="2" stroke-linecap="round" stroke-linejoin="round"/>
</svg>
