<svg width="10" height="10" viewBox="0 0 10 10" fill="none" xmlns="http://www.w3.org/2000/svg">
<g clip-path="url(#clip0_578_99)">
<path fill-rule="evenodd" clip-rule="evenodd" d="M6.5 0.5C6.76522 0.5 7.01957 0.605357 7.20711 0.792893C7.39464 0.98043 7.5 1.23478 7.5 1.5V3.5H8.5C8.76522 3.5 9.01957 3.60536 9.20711 3.79289C9.39464 3.98043 9.5 4.23478 9.5 4.5V8.5C9.63261 8.5 9.75979 8.55268 9.85355 8.64645C9.94732 8.74021 10 8.86739 10 9C10 9.13261 9.94732 9.25979 9.85355 9.35355C9.75979 9.44732 9.63261 9.5 9.5 9.5H0.5C0.367392 9.5 0.240215 9.44732 0.146447 9.35355C0.0526784 9.25979 0 9.13261 0 9C0 8.86739 0.0526784 8.74021 0.146447 8.64645C0.240215 8.55268 0.367392 8.5 0.5 8.5V3.5C0.5 3.23478 0.605357 2.98043 0.792893 2.79289C0.98043 2.60536 1.23478 2.5 1.5 2.5H2.5V1.5C2.5 1.23478 2.60536 0.98043 2.79289 0.792893C2.98043 0.605357 3.23478 0.5 3.5 0.5H6.5ZM2.5 3.5H1.5V8.5H2.5V3.5ZM8.5 4.5H7.5V8.5H8.5V4.5ZM5.5 6.5H4.5V7.5H5.5V6.5ZM5.5 4.5H4.5V5.5H5.5V4.5ZM5.5 2.5H4.5V3.5H5.5V2.5Z" fill="white"/>
</g>
<defs>
<clipPath id="clip0_578_99">
<rect width="10" height="10" fill="white"/>
</clipPath>
</defs>
</svg>
