<svg width="15" height="12" viewBox="0 0 15 12" fill="none" xmlns="http://www.w3.org/2000/svg">
<g clip-path="url(#clip0_578_99)">
<path d="M3.97257 11.6698C3.58299 11.6698 3.2496 11.5312 2.9724 11.254C2.69521 10.9768 2.55637 10.6432 2.5559 10.2531V5.18854L1.13924 6.26875C0.973958 6.38681 0.796875 6.4371 0.607986 6.41963C0.419097 6.40215 0.265625 6.31054 0.147569 6.14479C0.029514 5.97904 -0.0177083 5.80196 0.00590276 5.61354C0.0295138 5.42512 0.123958 5.27165 0.289236 5.15313L6.64653 0.283333C6.77639 0.188889 6.91522 0.118056 7.06303 0.0708333C7.21083 0.023611 7.36124 0 7.51424 0C7.66724 0 7.81787 0.023611 7.96615 0.0708333C8.11443 0.118056 8.25303 0.188889 8.38194 0.283333L10.3476 1.78854V1.39896C10.3476 1.10382 10.451 0.85307 10.6578 0.646708C10.8647 0.440347 11.1154 0.336931 11.4101 0.336458C11.7047 0.335986 11.9557 0.439403 12.163 0.646708C12.3703 0.854014 12.4735 1.10476 12.4726 1.39896V3.41771L14.7392 5.15313C14.8927 5.27118 14.9843 5.42465 15.0141 5.61354C15.0438 5.80243 14.9994 5.97951 14.8809 6.14479C14.7624 6.31007 14.6089 6.40168 14.4205 6.41963C14.2321 6.43757 14.055 6.38728 13.8892 6.26875L12.4726 5.18854V10.2531C12.4726 10.6427 12.334 10.9763 12.0568 11.254C11.7796 11.5317 11.446 11.6703 11.0559 11.6698H10.3476C9.95799 11.6698 9.6246 11.5312 9.3474 11.254C9.07021 10.9768 8.93137 10.6432 8.9309 10.2531V8.83646C8.9309 8.44688 8.79231 8.11349 8.51511 7.83629C8.23792 7.5591 7.90429 7.42026 7.51424 7.41979C7.12418 7.41932 6.79079 7.55815 6.51407 7.83629C6.23735 8.11443 6.09851 8.44782 6.09757 8.83646V10.2531C6.09757 10.6427 5.95897 10.9763 5.68178 11.254C5.40458 11.5317 5.07096 11.6703 4.6809 11.6698H3.97257ZM7.51424 3.67412L7.06303 2.71667C7.06303 2.3389 8.78924 3.91638 8.5059 3.67412C8.22257 3.43187 7.89201 4.60369 7.51424 4.60417C7.13646 4.60464 6.92986 5.37176 6.64653 5.61354C6.36319 5.85532 7.51424 3.29635 7.51424 3.67412Z" fill="white"/>
</g>
<defs>
<clipPath id="clip0_578_99">
<rect width="15" height="12" fill="white"/>
</clipPath>
</defs>
</svg>
