<svg width="22" height="22" viewBox="0 0 22 22" fill="none" xmlns="http://www.w3.org/2000/svg">
<g clip-path="url(#clip0_578_99)">
<path d="M15.7232 13.1667C15.8098 12.4517 15.8748 11.7367 15.8748 11C15.8748 10.2634 15.8098 9.54835 15.7232 8.83335H19.3848C19.5582 9.52669 19.6665 10.2525 19.6665 11C19.6665 11.7475 19.5582 12.4734 19.3848 13.1667M13.8057 19.19C14.4557 17.9875 14.954 16.6875 15.3007 15.3334H18.4965C17.4469 17.1407 15.7818 18.5097 13.8057 19.19ZM13.5348 13.1667H8.46484C8.3565 12.4517 8.2915 11.7367 8.2915 11C8.2915 10.2634 8.3565 9.53752 8.46484 8.83335H13.5348C13.6323 9.53752 13.7082 10.2634 13.7082 11C13.7082 11.7367 13.6323 12.4517 13.5348 13.1667ZM10.9998 19.6234C10.1007 18.3234 9.37484 16.8825 8.93067 15.3334H13.069C12.6248 16.8825 11.899 18.3234 10.9998 19.6234ZM6.6665 6.66669H3.50317C4.5417 4.85431 6.20572 3.48303 8.18317 2.81002C7.53317 4.01252 7.04567 5.31252 6.6665 6.66669ZM3.50317 15.3334H6.6665C7.04567 16.6875 7.53317 17.9875 8.18317 19.19C6.20963 18.51 4.54782 17.1406 3.50317 15.3334ZM2.61484 13.1667C2.4415 12.4734 2.33317 11.7475 2.33317 11C2.33317 10.2525 2.4415 9.52669 2.61484 8.83335H6.2765C6.18984 9.54835 6.12484 10.2634 6.12484 11C6.12484 11.7367 6.18984 12.4517 6.2765 13.1667M10.9998 2.36585C11.899 3.66585 12.6248 5.11752 13.069 6.66669H8.93067C9.37484 5.11752 10.1007 3.66585 10.9998 2.36585ZM18.4965 6.66669H15.3007C14.9611 5.3251 14.459 4.02997 13.8057 2.81002C15.799 3.49252 17.4565 4.86835 18.4965 6.66669ZM10.9998 0.166687C5.009 0.166687 0.166504 5.04169 0.166504 11C0.166504 13.8732 1.30787 16.6287 3.33951 18.6603C4.34548 19.6663 5.53974 20.4643 6.8541 21.0087C8.16846 21.5531 9.57718 21.8334 10.9998 21.8334C13.873 21.8334 16.6285 20.692 18.6602 18.6603C20.6918 16.6287 21.8332 13.8732 21.8332 11C21.8332 9.57737 21.553 8.16864 21.0085 6.85428C20.4641 5.53992 19.6661 4.34566 18.6602 3.3397C17.6542 2.33373 16.4599 1.53575 15.1456 0.991325C13.8312 0.446899 12.4225 0.166687 10.9998 0.166687Z" fill="white"/>
</g>
<defs>
<clipPath id="clip0_578_99">
<rect width="22" height="22" fill="white"/>
</clipPath>
</defs>
</svg>
