<svg width="20" height="23" viewBox="0 0 20 23" fill="none" xmlns="http://www.w3.org/2000/svg">
<path d="M8.82 8.67019C8.06 7.58519 7.774 6.79819 7.712 6.22519C7.653 5.68519 7.785 5.25519 8.047 4.84219C8.33 4.39519 8.755 3.98019 9.295 3.48919C9.8 3.03119 10.432 2.48619 10.928 1.86919L9.37 0.617188C8.954 1.13419 8.442 1.56419 7.952 2.00819C7.418 2.49319 6.803 3.07019 6.359 3.77219C5.893 4.50719 5.609 5.38319 5.724 6.44219C5.836 7.46819 6.312 8.57419 7.182 9.81719L8.82 8.67019ZM10.07 5.64019C10.354 4.95619 10.931 4.27019 11.85 3.48419L13.15 5.00219C12.319 5.71519 12.021 6.15519 11.915 6.40919C11.811 6.65919 11.88 6.90819 11.95 7.15619C12.034 7.45219 12.173 7.94619 12.164 8.47819C12.152 9.18419 11.91 9.93019 11.332 10.7982L9.668 9.68819C10.09 9.05619 10.16 8.67819 10.164 8.44519C10.169 8.15019 10.092 7.98519 9.967 7.48519C9.847 7.00719 9.758 6.38819 10.07 5.64019ZM4.141 10.2432C4.611 9.92919 5.191 9.76919 5.733 9.63919L5.266 7.69319C4.453 7.88919 3.715 8.15319 3.154 8.50019C2.644 8.81619 2 9.37919 2 10.2432C2 10.9692 2.486 11.5492 3.065 11.9292C3.02138 12.1167 2.99957 12.3087 3 12.5012C3 13.4812 3.418 14.3082 4.143 14.9212C4.036 15.2212 3.988 15.5552 4.003 15.8892C3.226 16.0402 2.467 16.2622 1.833 16.5532C1.401 16.7512 0.975 17.0042 0.643 17.3302C0.309 17.6592 0 18.1342 0 18.7432C0 19.1702 0.189 19.5152 0.374 19.7532C0.563 19.9952 0.806 20.2022 1.058 20.3772C1.564 20.7282 2.242 21.0462 3.017 21.3132C4.575 21.8512 6.686 22.2432 9 22.2432C12.327 22.2432 14.663 21.8592 16.19 21.4612C16.7702 21.3136 17.3396 21.1262 17.894 20.9002C18.104 20.8122 18.314 20.7192 18.51 20.6032C18.52 20.5972 17.482 18.8882 17.486 18.8852C16.922 19.1792 16.298 19.3652 15.686 19.5252C14.337 19.8772 12.173 20.2432 9 20.2432C6.896 20.2432 5.007 19.8852 3.67 19.4232C3.138 19.2392 2.582 19.0252 2.129 18.6832C2.244 18.5932 2.419 18.4842 2.667 18.3712C3.225 18.1152 3.99 17.9052 4.807 17.7802C5.03633 18.0235 5.30767 18.2369 5.621 18.4202C6.586 18.9822 7.913 19.2432 9.5 19.2432C10.81 19.2432 11.758 19.1112 12.398 18.9692C12.754 18.8912 13.112 18.8022 13.44 18.6412C13.443 18.6392 12.559 16.8462 12.559 16.8462C12.365 16.9162 12.1673 16.9729 11.966 17.0162C11.477 17.1252 10.676 17.2432 9.5 17.2432C8.087 17.2432 7.164 17.0032 6.629 16.6922C6.203 16.4442 6.04 16.1682 6.007 15.8682C6.875 16.1212 7.902 16.2432 9.063 16.2432C10.526 16.2432 11.581 16.1002 12.291 15.9462C12.677 15.8632 13.066 15.7672 13.425 15.6002C13.445 15.5902 12.568 13.7932 12.568 13.7932C12.3405 13.8784 12.1064 13.9446 11.868 13.9912C11.308 14.1122 10.395 14.2432 9.062 14.2432C7.459 14.2432 6.392 13.9792 5.76 13.6202C5.289 13.3522 5.082 13.0522 5.02 12.7302C6.26 13.0562 7.825 13.2432 9.5 13.2432C11.317 13.2432 13.002 13.0232 14.283 12.6452L13.717 10.7272C12.663 11.0382 11.177 11.2432 9.5 11.2432C7.776 11.2432 6.255 11.0272 5.198 10.7012C4.698 10.5482 4.352 10.3852 4.142 10.2432M15.59 10.9892C16.803 10.8792 17.25 11.1772 17.394 11.3312C17.543 11.4912 17.595 11.7392 17.53 12.0012C17.414 12.4652 17.087 12.9152 16.557 13.3292C16.028 13.7422 15.357 14.0692 14.684 14.2942L15.316 16.1912C16.144 15.9152 17.034 15.4932 17.787 14.9062C18.537 14.3202 19.211 13.5212 19.47 12.4862C19.655 11.7462 19.582 10.7452 18.856 9.96619C18.126 9.18419 16.947 8.85719 15.409 8.99719L15.59 10.9892Z" fill="white"/>
</svg>
