<svg width="76" height="54" viewBox="0 0 76 54" fill="none" xmlns="http://www.w3.org/2000/svg">
<path d="M46.6688 37.8058C47.6391 39.7704 49.1436 41.4217 51.0096 42.5703C52.8757 43.7189 55.0277 44.3182 57.2188 44.2996C61.65 44.2996 64.4813 42.0839 64.4813 39.0246C64.4813 35.3589 61.5719 34.0589 56.6969 31.9246L54.0219 30.7777C46.3063 27.4902 41.1781 23.3714 41.1781 14.6652C41.1781 6.64332 47.2906 0.540196 56.8406 0.540196C59.94 0.316117 63.0368 1.01024 65.744 2.53586C68.4512 4.06149 70.6489 6.35097 72.0625 9.11832L63.7344 14.4652C63.188 13.0944 62.238 11.922 61.0102 11.1033C59.7824 10.2846 58.3349 9.85827 56.8594 9.88082C56.2162 9.81658 55.5667 9.88696 54.9522 10.0875C54.3377 10.288 53.7717 10.6142 53.2902 11.0455C52.8087 11.4767 52.4222 12.0035 52.1555 12.5922C51.8887 13.181 51.7474 13.8189 51.7406 14.4652C51.7406 17.6746 53.7281 18.9714 58.3031 20.9589L60.9781 22.1027C70.0656 25.9996 75.1938 29.9714 75.1938 38.9027C75.1938 48.5308 67.6313 53.8058 57.4719 53.8058C53.5149 54.0556 49.5701 53.156 46.1126 51.2154C42.6551 49.2749 39.8324 46.3761 37.9844 42.8683L46.6688 37.8058ZM8.89375 38.7433C10.575 41.7246 12.1031 44.2433 15.7688 44.2433C19.2812 44.2433 21.5 42.8683 21.5 37.5246V1.16519H32.1938V37.6746C32.1938 48.7464 25.7 53.7871 16.225 53.7871C12.8779 53.9691 9.55422 53.1333 6.69149 51.3895C3.82875 49.6458 1.56123 47.0759 0.1875 44.0183L8.89375 38.7433Z" fill="white"/>
</svg>
