<svg width="21" height="21" viewBox="0 0 21 21" fill="none" xmlns="http://www.w3.org/2000/svg">
<path fill-rule="evenodd" clip-rule="evenodd" d="M3 -0.00683594C2.27065 -0.00683594 1.57118 0.282895 1.05546 0.79862C0.539731 1.31435 0.25 2.01382 0.25 2.74316C0.25 3.47251 0.539731 4.17198 1.05546 4.68771C1.57118 5.20343 2.27065 5.49316 3 5.49316C3.72935 5.49316 4.42882 5.20343 4.94454 4.68771C5.46027 4.17198 5.75 3.47251 5.75 2.74316C5.75 2.01382 5.46027 1.31435 4.94454 0.79862C4.42882 0.282895 3.72935 -0.00683594 3 -0.00683594ZM1.75 2.74316C1.75 2.41164 1.8817 2.0937 2.11612 1.85928C2.35054 1.62486 2.66848 1.49316 3 1.49316C3.33152 1.49316 3.64946 1.62486 3.88388 1.85928C4.1183 2.0937 4.25 2.41164 4.25 2.74316C4.25 3.07468 4.1183 3.39263 3.88388 3.62705C3.64946 3.86147 3.33152 3.99316 3 3.99316C2.66848 3.99316 2.35054 3.86147 2.11612 3.62705C1.8817 3.39263 1.75 3.07468 1.75 2.74316ZM0.25 6.74316C0.25 6.54425 0.329018 6.35349 0.46967 6.21283C0.610322 6.07218 0.801088 5.99316 1 5.99316H5C5.19891 5.99316 5.38968 6.07218 5.53033 6.21283C5.67098 6.35349 5.75 6.54425 5.75 6.74316V19.7432C5.75 19.9421 5.67098 20.1328 5.53033 20.2735C5.38968 20.4141 5.19891 20.4932 5 20.4932H1C0.801088 20.4932 0.610322 20.4141 0.46967 20.2735C0.329018 20.1328 0.25 19.9421 0.25 19.7432V6.74316ZM1.75 7.49316V18.9932H4.25V7.49316H1.75ZM7.25 6.74316C7.25 6.54425 7.32902 6.35349 7.46967 6.21283C7.61032 6.07218 7.80109 5.99316 8 5.99316H12C12.1989 5.99316 12.3897 6.07218 12.5303 6.21283C12.671 6.35349 12.75 6.54425 12.75 6.74316V7.17716L13.185 6.99016C13.9351 6.66977 14.7307 6.46899 15.543 6.39516C18.318 6.14316 20.75 8.32316 20.75 11.1232V19.7432C20.75 19.9421 20.671 20.1328 20.5303 20.2735C20.3897 20.4141 20.1989 20.4932 20 20.4932H16C15.8011 20.4932 15.6103 20.4141 15.4697 20.2735C15.329 20.1328 15.25 19.9421 15.25 19.7432V12.7432C15.25 12.4116 15.1183 12.0937 14.8839 11.8593C14.6495 11.6249 14.3315 11.4932 14 11.4932C13.6685 11.4932 13.3505 11.6249 13.1161 11.8593C12.8817 12.0937 12.75 12.4116 12.75 12.7432V19.7432C12.75 19.9421 12.671 20.1328 12.5303 20.2735C12.3897 20.4141 12.1989 20.4932 12 20.4932H8C7.80109 20.4932 7.61032 20.4141 7.46967 20.2735C7.32902 20.1328 7.25 19.9421 7.25 19.7432V6.74316ZM8.75 7.49316V18.9932H11.25V12.7432C11.25 12.0138 11.5397 11.3143 12.0555 10.7986C12.5712 10.2829 13.2707 9.99316 14 9.99316C14.7293 9.99316 15.4288 10.2829 15.9445 10.7986C16.4603 11.3143 16.75 12.0138 16.75 12.7432V18.9932H19.25V11.1232C19.25 9.21916 17.589 7.71516 15.68 7.88916C15.0241 7.94867 14.3817 8.11063 13.776 8.36916L12.296 9.00416C12.1818 9.0532 12.0573 9.0731 11.9336 9.0621C11.8098 9.05109 11.6907 9.00951 11.587 8.9411C11.4833 8.87269 11.3982 8.77959 11.3394 8.67016C11.2806 8.56073 11.2499 8.4384 11.25 8.31416V7.49316H8.75Z" fill="white"/>
</svg>
