<svg width="15" height="15" viewBox="0 0 15 15" fill="none" xmlns="http://www.w3.org/2000/svg">
<g clip-path="url(#clip0_578_99)">
<path d="M14.546 6.74986C14.4809 6.46877 14.3551 6.20528 14.1777 5.97777C13.9976 5.75199 13.7703 5.56826 13.5118 5.43944C13.308 5.33916 13.0867 5.27904 12.8602 5.26236C12.7447 4.02285 12.1953 2.86391 11.3089 1.98986C10.2996 0.982023 8.93153 0.415955 7.50517 0.415955C6.07881 0.415955 4.71076 0.982023 3.70142 1.98986C2.815 2.86391 2.26564 4.02285 2.15017 5.26236C1.9236 5.27904 1.70236 5.33916 1.4985 5.43944C1.23873 5.56626 1.01108 5.75031 0.832671 5.97777C0.653866 6.20478 0.528007 6.46885 0.464283 6.75071C0.400559 7.03256 0.400578 7.32509 0.464338 7.60694L1.57642 12.1615C1.76783 12.8594 2.18373 13.4748 2.75986 13.9127C3.336 14.3505 4.04029 14.5865 4.76392 14.584H10.2252C10.9513 14.5848 11.6575 14.3466 12.2348 13.9063C12.8121 13.4659 13.2285 12.8478 13.4198 12.1474L14.5248 7.60694C14.5956 7.32644 14.6027 7.03319 14.546 6.74986ZM5.26684 11.2974C5.26684 11.4383 5.21087 11.5734 5.11124 11.673C5.01161 11.7726 4.87648 11.8286 4.73559 11.8286C4.59469 11.8286 4.45957 11.7726 4.35994 11.673C4.26031 11.5734 4.20434 11.4383 4.20434 11.2974V8.50652C4.20434 8.36563 4.26031 8.2305 4.35994 8.13087C4.45957 8.03124 4.59469 7.97527 4.73559 7.97527C4.87648 7.97527 5.01161 8.03124 5.11124 8.13087C5.21087 8.2305 5.26684 8.36563 5.26684 8.50652V11.2974ZM8.03642 11.2974C8.03642 11.3671 8.02268 11.4362 7.99598 11.5007C7.96928 11.5651 7.93015 11.6237 7.88082 11.673C7.83149 11.7223 7.77293 11.7615 7.70847 11.7882C7.64402 11.8149 7.57494 11.8286 7.50517 11.8286C7.43541 11.8286 7.36632 11.8149 7.30187 11.7882C7.23742 11.7615 7.17885 11.7223 7.12952 11.673C7.08019 11.6237 7.04106 11.5651 7.01436 11.5007C6.98766 11.4362 6.97392 11.3671 6.97392 11.2974V8.50652C6.97392 8.36563 7.02989 8.2305 7.12952 8.13087C7.22915 8.03124 7.36427 7.97527 7.50517 7.97527C7.64607 7.97527 7.78119 8.03124 7.88082 8.13087C7.98045 8.2305 8.03642 8.36563 8.03642 8.50652V11.2974ZM10.806 11.2974C10.806 11.4383 10.75 11.5734 10.6504 11.673C10.5508 11.7726 10.4157 11.8286 10.2748 11.8286C10.1339 11.8286 9.99873 11.7726 9.8991 11.673C9.79948 11.5734 9.7435 11.4383 9.7435 11.2974V8.50652C9.7435 8.36563 9.79948 8.2305 9.8991 8.13087C9.99873 8.03124 10.1339 7.97527 10.2748 7.97527C10.4157 7.97527 10.5508 8.03124 10.6504 8.13087C10.75 8.2305 10.806 8.36563 10.806 8.50652V11.2974ZM3.21975 5.24819C3.33625 4.29734 3.77056 3.41373 4.45225 2.74069C5.26329 1.93356 6.36095 1.48044 7.50517 1.48044C8.64939 1.48044 9.74705 1.93356 10.5581 2.74069C11.2398 3.41373 11.6741 4.29734 11.7906 5.24819H3.21975Z" fill="white"/>
</g>
<defs>
<clipPath id="clip0_578_99">
<rect width="15" height="15" fill="white"/>
</clipPath>
</defs>
</svg>
