<svg width="12" height="11" viewBox="0 0 12 11" fill="none" xmlns="http://www.w3.org/2000/svg">
<g clip-path="url(#clip0_578_99)">
<path d="M2.35627 3.56399L2.23327 3.84699C2.21404 3.89307 2.18162 3.93244 2.14006 3.96013C2.09851 3.98782 2.0497 4.00259 1.99977 4.00259C1.94984 4.00259 1.90102 3.98782 1.85947 3.96013C1.81792 3.93244 1.78549 3.89307 1.76627 3.84699L1.64327 3.56399C1.42701 3.06335 1.03096 2.66195 0.533267 2.43899L0.153767 2.26949C0.107726 2.24831 0.0687238 2.21438 0.0413835 2.17171C0.0140432 2.12903 -0.000488281 2.07942 -0.000488281 2.02874C-0.000488281 1.97806 0.0140432 1.92845 0.0413835 1.88578C0.0687238 1.84311 0.107726 1.80917 0.153767 1.78799L0.512267 1.62849C1.02247 1.39918 1.4253 0.982932 1.63777 0.465491L1.76477 0.159991C1.78335 0.112668 1.81575 0.0720402 1.85776 0.0434038C1.89977 0.0147673 1.94943 -0.000549316 2.00027 -0.000549316C2.05111 -0.000549316 2.10077 0.0147673 2.14277 0.0434038C2.18478 0.0720402 2.21719 0.112668 2.23577 0.159991L2.36227 0.464991C2.57451 0.982529 2.97716 1.39896 3.48727 1.62849L3.84627 1.78849C3.89217 1.80973 3.93103 1.84366 3.95827 1.88628C3.98551 1.92889 3.99998 1.97841 3.99998 2.02899C3.99998 2.07957 3.98551 2.12909 3.95827 2.1717C3.93103 2.21432 3.89217 2.24825 3.84627 2.26949L3.46627 2.43849C2.96867 2.66167 2.5728 3.06325 2.35677 3.56399M9.11427 1.18549L6.64427 3.10649C4.67127 2.61949 2.77927 3.77299 2.25027 5.74849C2.19927 5.93849 2.18327 6.13099 2.16677 6.33299C2.10927 7.02999 2.04327 7.83549 0.500267 8.99799C1.75027 9.74799 4.00027 10.499 5.75127 10.499C6.31977 10.4985 6.88073 10.3689 7.39179 10.1198C7.90284 9.87082 8.35064 9.50893 8.70136 9.06151C9.05209 8.61409 9.29657 8.09283 9.41634 7.53709C9.53612 6.98135 9.52805 6.40566 9.39277 5.85349L11.3128 3.38449C11.3876 3.28831 11.4247 3.16811 11.4172 3.04649C11.4096 2.92486 11.3579 2.81018 11.2718 2.72399L9.77477 1.22699C9.68864 1.14077 9.57399 1.08897 9.45236 1.08133C9.33074 1.07368 9.21051 1.11073 9.11427 1.18549ZM8.44777 4.14249C8.41599 4.10961 8.38365 4.07727 8.35077 4.04549L7.78877 3.48349L9.37977 2.24599L10.2528 3.11899L9.01477 4.70999L8.44777 4.14249Z" fill="white"/>
</g>
<defs>
<clipPath id="clip0_578_99">
<rect width="12" height="11" fill="white"/>
</clipPath>
</defs>
</svg>
