<svg width="12" height="12" viewBox="0 0 12 12" fill="none" xmlns="http://www.w3.org/2000/svg">
<g clip-path="url(#clip0_578_99)">
<path d="M10.999 0.452332L11.5475 1.00077C12.1334 1.58671 12.1334 2.53593 11.5475 3.12186L10.2256 4.44374L7.5537 1.77421L8.87558 0.452332C9.46151 -0.133606 10.4107 -0.133606 10.9967 0.452332H10.999ZM1.05214 8.27811L7.02401 2.30389L9.69589 4.97577L3.72167 10.9476C3.56464 11.1047 3.36776 11.2195 3.15448 11.2805L0.716982 11.9766C0.520107 12.0328 0.30917 11.9789 0.163857 11.8336C0.018545 11.6883 -0.0353613 11.4773 0.0208887 11.2805L0.716982 8.84296C0.77792 8.62733 0.892764 8.4328 1.04979 8.27577L1.05214 8.27811ZM5.84511 2.42343L2.42323 5.8453L0.374795 3.79452C-0.0634863 3.35624 -0.0634863 2.64374 0.374795 2.20311L2.20526 0.374988C2.64355 -0.0632935 3.35604 -0.0632935 3.79667 0.374988L4.26073 0.83905C4.2537 0.846082 4.24433 0.853113 4.23729 0.860144L2.7373 2.36014C2.59198 2.50546 2.59198 2.74452 2.7373 2.88983C2.88261 3.03514 3.12167 3.03514 3.26698 2.88983L4.76698 1.38983C4.77401 1.3828 4.78104 1.37343 4.78808 1.36639L5.84511 2.42343ZM9.57636 6.15468L10.6334 7.21171C10.6264 7.21874 10.617 7.22577 10.61 7.2328L9.10995 8.7328C8.96464 8.87811 8.96464 9.11718 9.10995 9.26249C9.25526 9.4078 9.49433 9.4078 9.63964 9.26249L11.1396 7.76249C11.1467 7.75546 11.1537 7.74608 11.1607 7.73905L11.6248 8.20546C12.0631 8.64374 12.0631 9.35624 11.6248 9.79686L9.79433 11.625C9.35605 12.0633 8.64355 12.0633 8.20292 11.625L6.15448 9.57655L9.57636 6.15468Z" fill="white"/>
</g>
<defs>
<clipPath id="clip0_578_99">
<rect width="12" height="12" fill="white"/>
</clipPath>
</defs>
</svg>
