<svg width="15" height="15" viewBox="0 0 15 15" fill="none" xmlns="http://www.w3.org/2000/svg">
<path d="M4.36932 8.25083V13.2658C4.36932 13.5627 4.2514 13.8473 4.04152 14.0572C3.83164 14.2671 3.54697 14.385 3.25015 14.385H1.91848C1.62166 14.385 1.337 14.2671 1.12711 14.0572C0.917228 13.8473 0.799316 13.5627 0.799316 13.2658V8.25083C0.799311 7.95336 0.916996 7.66796 1.12668 7.45695C1.33636 7.24594 1.62101 7.12645 1.91848 7.12458H3.25015C3.54762 7.12645 3.83227 7.24594 4.04195 7.45695C4.25164 7.66796 4.36932 7.95336 4.36932 8.25083ZM9.28515 4.99958V13.2871C9.28328 13.5846 9.1638 13.8692 8.95278 14.0789C8.74177 14.2886 8.45638 14.4063 8.1589 14.4062H6.83432C6.53684 14.4063 6.25144 14.2886 6.04043 14.0789C5.82942 13.8692 5.70994 13.5846 5.70807 13.2871V4.99958C5.70807 4.70088 5.82672 4.41442 6.03794 4.2032C6.24915 3.99199 6.53562 3.87333 6.83432 3.87333H8.1589C8.4576 3.87333 8.74407 3.99199 8.95528 4.2032C9.16649 4.41442 9.28515 4.70088 9.28515 4.99958ZM14.201 1.72V13.2871C14.1991 13.5846 14.0796 13.8692 13.8686 14.0789C13.6576 14.2886 13.3722 14.4063 13.0747 14.4062H11.7501C11.4527 14.4063 11.1673 14.2886 10.9563 14.0789C10.7453 13.8692 10.6258 13.5846 10.6239 13.2871V1.72C10.6239 1.4213 10.7426 1.13483 10.9538 0.923621C11.165 0.712408 11.4514 0.59375 11.7501 0.59375H13.0747C13.3734 0.59375 13.6599 0.712408 13.8711 0.923621C14.0823 1.13483 14.201 1.4213 14.201 1.72Z" fill="white"/>
</svg>
