<svg width="26" height="35" viewBox="0 0 26 35" fill="none" xmlns="http://www.w3.org/2000/svg">
<path d="M15.5 0H10.5C7.84872 0.00289509 5.30687 1.05739 3.43213 2.93213C1.55739 4.80687 0.502895 7.34872 0.5 10V25C0.502895 27.6513 1.55739 30.1931 3.43213 32.0679C5.30687 33.9426 7.84872 34.9971 10.5 35H15.5C18.1513 34.9971 20.6931 33.9426 22.5679 32.0679C24.4426 30.1931 25.4971 27.6513 25.5 25V10C25.4971 7.34872 24.4426 4.80687 22.5679 2.93213C20.6931 1.05739 18.1513 0.00289509 15.5 0ZM23 25C22.9979 26.9885 22.2071 28.8949 20.801 30.301C19.3949 31.7071 17.4885 32.4979 15.5 32.5H10.5C8.51151 32.4979 6.60506 31.7071 5.19898 30.301C3.79291 28.8949 3.00207 26.9885 3 25V10C3.00207 8.01151 3.79291 6.10506 5.19898 4.69898C6.60506 3.29291 8.51151 2.50207 10.5 2.5H15.5C17.4885 2.50207 19.3949 3.29291 20.801 4.69898C22.2071 6.10506 22.9979 8.01151 23 10V25ZM14.25 10.5172V24.4828L15.8656 22.8656C16.1002 22.6311 16.4183 22.4993 16.75 22.4993C17.0817 22.4993 17.3998 22.6311 17.6344 22.8656C17.8689 23.1002 18.0007 23.4183 18.0007 23.75C18.0007 24.0817 17.8689 24.3998 17.6344 24.6344L13.8844 28.3844C13.7683 28.5006 13.6304 28.5928 13.4787 28.6557C13.3269 28.7186 13.1643 28.751 13 28.751C12.8357 28.751 12.6731 28.7186 12.5213 28.6557C12.3696 28.5928 12.2317 28.5006 12.1156 28.3844L8.36562 24.6344C8.13107 24.3998 7.9993 24.0817 7.9993 23.75C7.99931 23.4183 8.13107 23.1002 8.36562 22.8656C8.60017 22.6311 8.91829 22.4993 9.25 22.4993C9.58171 22.4993 9.89983 22.6311 10.1344 22.8656L11.75 24.4828V10.5172L10.1344 12.1344C9.89983 12.3689 9.58171 12.5007 9.25 12.5007C8.91829 12.5007 8.60017 12.3689 8.36562 12.1344C8.13107 11.8998 7.99931 11.5817 7.9993 11.25C7.99931 10.9183 8.13107 10.6002 8.36562 10.3656L12.1156 6.61562C12.2317 6.4994 12.3696 6.40721 12.5213 6.3443C12.6731 6.28139 12.8357 6.24902 13 6.24902C13.1643 6.24902 13.3269 6.28139 13.4787 6.3443C13.6304 6.40721 13.7683 6.4994 13.8844 6.61562L17.6344 10.3656C17.7505 10.4818 17.8426 10.6196 17.9055 10.7714C17.9683 10.9231 18.0007 11.0858 18.0007 11.25C18.0007 11.4142 17.9683 11.5769 17.9055 11.7286C17.8426 11.8804 17.7505 12.0182 17.6344 12.1344C17.5182 12.2505 17.3804 12.3426 17.2286 12.4055C17.0769 12.4683 16.9142 12.5007 16.75 12.5007C16.5858 12.5007 16.4231 12.4683 16.2714 12.4055C16.1196 12.3426 15.9818 12.2505 15.8656 12.1344L14.25 10.5172Z" fill="white"/>
</svg>
