<svg width="70" height="43" viewBox="0 0 70 43" fill="none" xmlns="http://www.w3.org/2000/svg">
<path d="M35 0.243164C25.655 0.243164 19.845 4.89816 17.5 14.2432C21 9.58816 25.095 7.83816 29.75 8.99316C32.41 9.65816 34.335 11.5832 36.435 13.7182C39.865 17.2182 43.75 21.2432 52.5 21.2432C61.845 21.2432 67.655 16.5882 70 7.24316C66.5 11.8982 62.405 13.6482 57.75 12.4932C55.09 11.8282 53.2 9.90316 51.065 7.76816C47.635 4.26816 43.75 0.243164 35 0.243164ZM17.5 21.2432C8.155 21.2432 2.345 25.8982 0 35.2432C3.5 30.5882 7.595 28.8382 12.25 29.9932C14.91 30.6582 16.8 32.5832 18.935 34.7182C22.365 38.2182 26.25 42.2432 35 42.2432C44.345 42.2432 50.155 37.5882 52.5 28.2432C49 32.8982 44.905 34.6482 40.25 33.4932C37.59 32.8282 35.7 30.9032 33.565 28.7682C30.135 25.2682 26.25 21.2432 17.5 21.2432Z" fill="white"/>
</svg>
