<svg width="15" height="15" viewBox="0 0 15 15" fill="none" xmlns="http://www.w3.org/2000/svg">
<path fill-rule="evenodd" clip-rule="evenodd" d="M14.5832 7.50002C14.5832 11.4121 11.412 14.5834 7.49985 14.5834C6.36651 14.5834 5.29551 14.317 4.34635 13.8439C4.09569 13.714 3.80616 13.6805 3.53247 13.7496L1.95572 14.1718C1.79965 14.2135 1.63538 14.2133 1.47939 14.1714C1.32339 14.1295 1.18117 14.0473 1.06699 13.933C0.952805 13.8188 0.870687 13.6765 0.828873 13.5205C0.787059 13.3645 0.787021 13.2002 0.828763 13.0441L1.25022 11.4674C1.31897 11.1938 1.28521 10.9046 1.1553 10.6542C0.66771 9.67436 0.414779 8.5945 0.416513 7.50002C0.416513 3.5879 3.58772 0.416687 7.49985 0.416687C11.412 0.416687 14.5832 3.5879 14.5832 7.50002ZM7.49985 4.13544C7.64074 4.13544 7.77587 4.19141 7.8755 4.29104C7.97512 4.39067 8.0311 4.52579 8.0311 4.66669V4.67377C8.80247 4.86856 9.44776 5.47631 9.44776 6.31923C9.44776 6.46012 9.39179 6.59525 9.29216 6.69488C9.19253 6.79451 9.05741 6.85048 8.91651 6.85048C8.77562 6.85048 8.64049 6.79451 8.54086 6.69488C8.44123 6.59525 8.38526 6.46012 8.38526 6.31923C8.38526 6.04723 8.08351 5.6704 7.49985 5.6704C6.91618 5.6704 6.61443 6.04723 6.61443 6.31923C6.61443 6.59123 6.91618 6.96877 7.49985 6.96877C8.48089 6.96877 9.44776 7.64877 9.44776 8.68081C9.44776 9.52373 8.80247 10.1322 8.0311 10.3263V10.3334C8.0311 10.4742 7.97512 10.6094 7.8755 10.709C7.77587 10.8086 7.64074 10.8646 7.49985 10.8646C7.35895 10.8646 7.22382 10.8086 7.1242 10.709C7.02457 10.6094 6.9686 10.4742 6.9686 10.3334V10.3263C6.19722 10.1322 5.55193 9.52373 5.55193 8.68081C5.55193 8.53992 5.6079 8.40479 5.70753 8.30516C5.80716 8.20553 5.94228 8.14956 6.08318 8.14956C6.22408 8.14956 6.3592 8.20553 6.45883 8.30516C6.55846 8.40479 6.61443 8.53992 6.61443 8.68081C6.61443 8.95281 6.91618 9.32965 7.49985 9.32965C8.08351 9.32965 8.38526 8.95281 8.38526 8.68081C8.38526 8.40881 8.08351 8.03127 7.49985 8.03127C6.5188 8.03127 5.55193 7.35127 5.55193 6.31923C5.55193 5.47631 6.19722 4.86856 6.9686 4.67377V4.66669C6.9686 4.52579 7.02457 4.39067 7.1242 4.29104C7.22382 4.19141 7.35895 4.13544 7.49985 4.13544Z" fill="white"/>
</svg>
