<svg width="24" height="24" viewBox="0 0 24 24" fill="none" xmlns="http://www.w3.org/2000/svg">
<g clip-path="url(#clip0_595_99)">
<path d="M23.6738 20.7497L18.9998 16.0767C18.7889 15.8658 18.503 15.7486 18.203 15.7486H17.4389C18.7327 14.0939 19.5014 12.0131 19.5014 9.74906C19.5014 4.36359 15.1369 0 9.75094 0C4.365 0 0 4.36359 0 9.74906C0 15.1345 4.36453 19.4981 9.75094 19.4981C12.015 19.4981 14.0967 18.7294 15.7514 17.4356V18.1997C15.7514 18.4997 15.8686 18.7856 16.0795 18.9966L20.7534 23.6695C21.1941 24.1102 21.9066 24.1102 22.3425 23.6695L23.6691 22.343C24.1097 21.9023 24.1097 21.1903 23.6738 20.7497ZM9.75094 16.4981C6.0225 16.4981 3.00094 13.4822 3.00094 9.74906C3.00094 6.02109 6.01734 3 9.75094 3C13.4794 3 16.5009 6.01594 16.5009 9.74906C16.5009 13.477 13.4845 16.4981 9.75094 16.4981ZM9.75187 5.25C7.84031 5.25 6.29062 6.79922 6.29062 8.71078C6.29062 10.2558 8.55281 13.0725 9.41953 14.0948C9.46018 14.1435 9.51101 14.1826 9.56844 14.2095C9.62586 14.2363 9.68848 14.2502 9.75187 14.2502C9.81527 14.2502 9.87788 14.2363 9.93531 14.2095C9.99274 14.1826 10.0436 14.1435 10.0842 14.0948C10.9509 13.0725 13.2131 10.2563 13.2131 8.71078C13.2131 6.79922 11.6634 5.25 9.75187 5.25ZM9.75187 9.75C9.13031 9.75 8.62687 9.24609 8.62687 8.625C8.62687 8.00344 9.13078 7.5 9.75187 7.5C10.373 7.5 10.8769 8.00344 10.8769 8.625C10.8769 9.24609 10.373 9.75 9.75187 9.75Z" fill="white"/>
</g>
<defs>
<clipPath id="clip0_595_99">
<rect width="24" height="24" fill="white"/>
</clipPath>
</defs>
</svg>
