<svg width="76" height="76" viewBox="0 0 76 76" fill="none" xmlns="http://www.w3.org/2000/svg">
<g clip-path="url(#clip0_139_423)">
<path d="M37.9571 75.7432C17.0151 75.3407 0.646437 58.1737 0.5 38.2003C0.907187 17.2739 17.9831 0.889602 37.9571 0.743164C58.8848 1.16154 75.3534 18.1993 75.5 38.2003C75.0863 59.1435 57.9574 75.5965 37.9571 75.7432ZM37.9571 3.40029C18.5123 3.78316 3.20669 19.6327 3.07144 38.2003C3.44963 57.6606 19.3903 72.9507 37.9571 73.086C57.4174 72.7077 72.7076 56.767 72.8429 38.2003C72.4758 18.7411 56.4971 3.53541 37.9571 3.40029ZM28.9571 68.886L38.5571 41.286L48.5857 68.286C41.8293 70.5478 35.4417 70.6849 28.9571 68.886ZM21.5857 20.1146C18.0713 20.5924 14.6534 20.7627 11.3 20.6289C17.6673 11.5257 27.8623 6.40435 37.9571 6.3146C46.2139 6.47085 53.9115 9.59198 59.5571 14.7146C56.9388 14.521 55.3711 15.6694 54.2429 17.6289C52.6032 22.6875 56.0679 26.4322 58.0144 30.2289C59.8546 33.698 59.7086 37.6425 58.7001 41.0289L53.9001 57.4004L42.3286 23.0289C43.5343 22.9167 44.7479 22.8805 45.8429 22.686C47.1389 22.3974 47.4233 21.1914 46.5286 20.4574C46.243 20.2289 45.9287 20.1147 45.5858 20.1147L38.6429 20.629H33.3715C31.8832 20.7169 27.6807 19.2792 27.3285 21.229C27.1466 21.9801 27.7073 22.5688 28.3571 22.6861C29.5037 22.8347 30.8174 23.0034 31.8714 23.1147L36.9285 36.6575L29.9 57.4004L18.2429 23.0289C19.4764 22.9217 20.7262 22.8844 21.8429 22.686C22.7572 22.5714 23.1572 22.1143 23.0429 21.3145C22.8808 20.6035 22.247 20.123 21.5857 20.1146ZM8.72856 25.4289L24.0714 66.9146C18.5354 64.1859 14.1586 60.1731 11.0428 55.386C5.34312 46.2903 4.74356 34.7507 8.72856 25.4289ZM68.6858 46.7289C66.1668 54.9544 61.0222 61.7672 53.9001 65.886C54.2429 64.9717 54.7858 63.4289 55.5287 61.2574L64.443 35.3717C65.3001 32.8574 65.9001 30.0574 66.243 26.9717C66.3588 25.7093 66.3626 24.4365 66.1573 23.286C69.8096 31.1637 70.8458 38.9667 68.6858 46.7289Z" fill="white"/>
</g>
<defs>
<clipPath id="clip0_139_423">
<rect width="75" height="75" fill="white" transform="translate(0.5 0.743164)"/>
</clipPath>
</defs>
</svg>
