<svg width="20" height="20" viewBox="0 0 20 20" fill="none" xmlns="http://www.w3.org/2000/svg">
<g clip-path="url(#clip0_578_99)">
<path d="M19.7632 9.38199C19.5241 10.3549 19.0943 11.2708 18.4986 12.0764C17.903 12.882 17.1533 13.5613 16.2932 14.075C15.4337 14.5881 14.4809 14.9254 13.4901 15.0674C12.4993 15.2093 11.4901 15.1531 10.5212 14.902C10.3019 14.842 10.0705 14.842 9.85116 14.902C9.6363 14.951 9.43909 15.0583 9.28116 15.212L5.01516 19.502C4.85193 19.6576 4.6623 19.7829 4.45516 19.872C4.24322 19.96 4.01565 20.0043 3.78616 20.002C3.5599 20.0043 3.33559 19.9601 3.12716 19.872C2.91895 19.7849 2.72898 19.6593 2.56716 19.502L0.50016 17.432C0.338621 17.2736 0.212513 17.0827 0.130161 16.872C-0.0427358 16.4455 -0.0427358 15.9685 0.130161 15.542C0.212513 15.3313 0.338621 15.1404 0.50016 14.982L4.77716 10.702C4.93419 10.549 5.04507 10.355 5.09716 10.142C5.15716 9.93299 5.15716 9.71199 5.09716 9.50199C4.75446 8.18889 4.77009 6.80791 5.14242 5.5029C5.51475 4.19789 6.23017 3.01658 7.21416 2.08199C8.18978 1.15256 9.39778 0.503139 10.7112 0.20199C12.0322 -0.114312 13.4146 -0.0624316 14.7082 0.35199C14.8323 0.388145 14.9448 0.456195 15.0345 0.549361C15.1241 0.642527 15.1878 0.757558 15.2191 0.882994C15.2505 1.00843 15.2484 1.13989 15.2132 1.26429C15.1779 1.38869 15.1107 1.50167 15.0182 1.59199L12.1002 4.52199C11.7468 4.90733 11.5474 5.40919 11.5402 5.93199C11.5273 6.16108 11.6024 6.38644 11.7502 6.56199L13.4692 8.29199C13.5986 8.38646 13.7471 8.45151 13.9043 8.48261C14.0614 8.5137 14.2235 8.51007 14.3792 8.47199C14.8031 8.41366 15.1997 8.22897 15.5172 7.94199L18.4352 5.01199C18.5278 4.92266 18.6411 4.85765 18.765 4.82276C18.8889 4.78786 19.0195 4.78416 19.1452 4.81199C19.2715 4.84295 19.3877 4.90625 19.4822 4.99566C19.5767 5.08508 19.6463 5.19753 19.6842 5.32199C20.0786 6.64302 20.1052 8.04645 19.7632 9.38199Z" fill="white"/>
</g>
<defs>
<clipPath id="clip0_578_99">
<rect width="20" height="20" fill="white"/>
</clipPath>
</defs>
</svg>
